{
  "accessors": [
    {
      "bufferView": 0,
      "byteOffset": 0,
      "componentType": 5123,
      "count": 13692,
      "type": "SCALAR",
      "max": [11499],
      "min": [0]
    },
    {
      "bufferView": 1,
      "byteOffset": 0,
      "componentType": 5126,
      "count": 11500,
      "type": "VEC3",
      "max": [7.781985282897949, 10.036334991455078, 2.339406967163086],
      "min": [-7.781985282897949, 0.00864711869508028, -2.6875686645507812],
      "name": "POSITION"
    },
    {
      "bufferView": 1,
      "byteOffset": 12,
      "componentType": 5126,
      "count": 11500,
      "type": "VEC2",
      "max": [0.9951171875, -0.004882842302322388],
      "min": [0.0048828125, -0.9609468579292297],
      "name": "TEXCOORD_0"
    },
    {
      "bufferView": 0,
      "byteOffset": 27384,
      "componentType": 5123,
      "count": 240,
      "type": "SCALAR",
      "max": [203],
      "min": [0]
    },
    {
      "bufferView": 2,
      "byteOffset": 0,
      "componentType": 5126,
      "count": 204,
      "type": "VEC3",
      "max": [-0.4287912845611572, 7.309024810791016, 2.0096704959869385],
      "min": [-0.800902247428894, 6.610130786895752, 1.8437918424606323],
      "name": "POSITION"
    },
    {
      "bufferView": 2,
      "byteOffset": 12,
      "componentType": 5126,
      "count": 204,
      "type": "VEC2",
      "max": [0.4822447896003723, -0.0048828125],
      "min": [0.11990662664175034, -0.0464165024459362],
      "name": "TEXCOORD_0"
    },
    {
      "bufferView": 0,
      "byteOffset": 27864,
      "componentType": 5123,
      "count": 240,
      "type": "SCALAR",
      "max": [202],
      "min": [0]
    },
    {
      "bufferView": 3,
      "byteOffset": 0,
      "componentType": 5126,
      "count": 203,
      "type": "VEC3",
      "max": [0.800902247428894, 7.309024810791016, 2.0096704959869385],
      "min": [0.4287912845611572, 6.610130786895752, 1.8437918424606323],
      "name": "POSITION"
    },
    {
      "bufferView": 3,
      "byteOffset": 12,
      "componentType": 5126,
      "count": 203,
      "type": "VEC2",
      "max": [0.5119184851646423, -0.0048828125],
      "min": [0.09022307395935059, -0.046337127685546875],
      "name": "TEXCOORD_0"
    }
  ],
  "asset": { "generator": "Aspose.3D 23.9.0", "version": "2.0" },
  "buffers": [
    {
      "uri": "data:application/octet-stream;base64,",
      "byteLength": 311800
    }
  ],
  "bufferViews": [
    { "buffer": 0, "byteOffset": 0, "byteLength": 28344, "target": 34963 },
    {
      "buffer": 0,
      "byteOffset": 28348,
      "byteLength": 273840,
      "byteStride": 20,
      "target": 34962
    },
    {
      "buffer": 0,
      "byteOffset": 302192,
      "byteLength": 4800,
      "byteStride": 20,
      "target": 34962
    },
    {
      "buffer": 0,
      "byteOffset": 306996,
      "byteLength": 4800,
      "byteStride": 20,
      "target": 34962
    }
  ],
  "meshes": [
    {
      "primitives": [
        {
          "attributes": { "POSITION": 1, "TEXCOORD_0": 2 },
          "indices": 0,
          "mode": 4
        }
      ],
      "name": "body_meshShapeOrig"
    },
    {
      "primitives": [
        {
          "attributes": { "POSITION": 4, "TEXCOORD_0": 5 },
          "indices": 3,
          "mode": 4
        }
      ],
      "name": "r_eye_meshShapeOrig"
    },
    {
      "primitives": [
        {
          "attributes": { "POSITION": 7, "TEXCOORD_0": 8 },
          "indices": 6,
          "mode": 4
        }
      ],
      "name": "l_eye_meshShapeOrig"
    }
  ],
  "nodes": [
    {
      "matrix": [
        1, 0, 0, 0, 0, 1, 0, 0, 0, 0, 1, 0, 0, -4.324232502628256e-6, 0, 1
      ],
      "mesh": 0,
      "name": "body_mesh"
    },
    { "mesh": 1, "name": "r_eye_mesh" },
    { "mesh": 2, "name": "l_eye_mesh" },
    { "children": [0, 1, 2], "name": "GEO" },
    { "children": [3], "name": "ACTOR" }
  ],
  "scene": 0,
  "scenes": [{ "nodes": [4] }]
}
